<?xml version="1.0" standalone="no"?>
<!DOCTYPE svg PUBLIC "-//W3C//DTD SVG 20010904//EN"
 "http://www.w3.org/TR/2001/REC-SVG-20010904/DTD/svg10.dtd">
<svg version="1.0" xmlns="http://www.w3.org/2000/svg"
 width="262.000000pt" height="193.000000pt" viewBox="0 0 262.000000 193.000000"
 preserveAspectRatio="xMidYMid meet">

<g transform="translate(0.000000,193.000000) scale(0.100000,-0.100000)"
fill="#000000" stroke="none">
<path d="M320 1910 c0 -16 7 -20 30 -20 21 0 30 -5 30 -16 0 -13 2 -13 13 -2
8 7 19 23 26 36 10 19 9 22 -9 22 -17 0 -20 -4 -15 -21 5 -16 3 -20 -6 -17 -8
3 -13 12 -11 22 2 12 -5 16 -28 16 -23 0 -30 -4 -30 -20z"/>
<path d="M2150 1887 c0 -12 -7 -31 -15 -41 -11 -15 -15 -48 -15 -126 l0 -106
28 -1 c15 0 99 -6 187 -12 97 -7 161 -8 163 -2 2 5 30 7 63 4 l59 -6 0 47 c0
42 -2 46 -24 46 -37 0 -56 -10 -56 -30 0 -19 -25 -34 -41 -24 -5 3 -7 10 -3
15 7 11 -28 8 -36 -3 -3 -3 -22 -1 -42 5 -27 9 -38 18 -42 38 -3 15 -8 38 -12
53 l-6 26 131 0 131 0 0 45 c0 42 -11 58 -25 35 -4 -6 -11 -7 -17 -4 -17 11
-99 14 -93 3 4 -5 0 -9 -9 -9 -8 0 -16 6 -19 13 -3 9 -8 9 -21 -2 -13 -11 -22
-12 -42 -2 -15 6 -23 7 -19 1 10 -16 -18 -12 -44 7 -14 9 -21 11 -17 5 10 -16
-13 -26 -29 -12 -12 10 -15 10 -15 1 0 -8 -8 -10 -20 -6 -14 5 -20 2 -20 -9 0
-9 -4 -16 -10 -16 -6 0 -10 -37 -10 -92 0 -74 -3 -90 -12 -80 -9 9 -14 54 -17
132 -2 90 -6 120 -17 124 -9 4 -14 -2 -14 -17z"/>
<path d="M560 1811 c0 -65 0 -64 -12 -79 -9 -11 -13 -11 -19 0 -7 10 -9 10 -9
-2 0 -22 12 -35 35 -38 37 -5 45 -11 45 -32 0 -11 4 -20 9 -20 4 0 6 11 3 25
-3 20 0 25 17 25 13 0 19 4 16 10 -4 6 1 22 9 35 9 14 12 25 6 25 -5 0 -10 7
-10 16 0 8 -4 12 -10 9 -5 -3 -10 1 -10 9 0 8 -9 20 -19 26 -11 5 -27 17 -35
26 -15 14 -16 11 -16 -35z"/>
<path d="M1991 1813 c-10 -21 -26 -55 -35 -77 -14 -33 -14 -37 -1 -26 8 7 15
18 15 24 0 7 9 29 19 49 24 47 32 67 26 67 -3 0 -13 -17 -24 -37z"/>
<path d="M383 1745 c0 -44 2 -61 4 -37 2 23 2 59 0 80 -2 20 -4 1 -4 -43z"/>
<path d="M0 1179 c0 -535 2 -609 15 -609 10 0 15 -10 15 -30 0 -20 -5 -30 -15
-30 -12 0 -15 -13 -13 -63 1 -62 2 -63 27 -60 23 3 23 2 6 -6 -17 -8 -15 -9
13 -8 30 0 47 16 20 18 -7 0 -4 4 7 9 13 5 28 3 42 -6 12 -8 24 -10 28 -5 3 5
-4 12 -15 16 -18 6 -30 37 -13 34 5 -1 28 -1 53 1 34 1 40 3 25 10 l-20 8 20
7 c11 3 27 10 35 14 30 16 80 23 80 12 0 -6 -15 -11 -33 -11 -21 0 -36 -7 -45
-20 -12 -19 -10 -20 35 -19 46 2 47 2 13 9 -64 12 -7 22 110 18 79 -2 109 0
106 8 -2 6 1 17 7 23 8 8 7 11 -6 11 -9 0 -17 -7 -17 -15 0 -12 -16 -15 -80
-15 -48 0 -80 4 -80 10 0 7 22 8 61 5 40 -4 58 -2 54 5 -3 5 -14 10 -23 10
-12 1 -10 5 8 15 14 7 47 13 73 13 26 -1 53 4 59 10 8 8 5 9 -11 5 -14 -3 -21
-1 -21 8 0 12 -2 12 -9 0 -6 -9 -11 -10 -15 -2 -4 6 -19 10 -34 10 l-27 -1 30
-8 c22 -6 9 -8 -47 -9 -46 -1 -78 3 -78 9 0 6 18 10 41 10 24 0 38 4 34 10 -4
6 11 10 37 10 25 0 38 4 31 8 -9 5 -1 12 22 21 19 7 35 17 35 22 0 6 10 7 22
4 16 -5 20 -4 13 3 -5 5 -19 12 -30 14 -16 3 -19 10 -17 37 3 29 1 33 -15 26
-10 -4 -54 -15 -98 -24 -44 -9 -85 -19 -90 -23 -25 -16 -38 10 -33 67 5 53 21
81 40 69 5 -3 7 -1 6 4 -2 6 2 9 7 9 10 -2 12 -7 14 -42 1 -17 3 -18 11 -5 8
12 10 10 10 -8 0 -14 4 -21 11 -17 6 4 8 13 5 21 -3 8 -1 14 4 14 6 0 10 -4
10 -10 0 -5 6 -7 14 -4 19 7 27 64 9 64 -8 0 -13 13 -13 38 0 20 -4 32 -8 27
-4 -6 -27 -25 -51 -43 -35 -24 -55 -32 -89 -32 l-44 0 3 -72 4 -73 -36 -2 -36
-2 -6 256 c-11 421 -10 486 12 544 17 43 19 67 14 157 -7 131 -11 137 -111
144 l-72 5 0 -608z m110 416 c0 -8 -2 -15 -4 -15 -2 0 -6 7 -10 15 -3 8 -1 15
4 15 6 0 10 -7 10 -15z m0 -535 c0 -11 -4 -20 -9 -20 -6 0 -9 9 -8 20 1 11 5
20 9 20 4 0 8 -9 8 -20z m300 -250 c0 -5 -2 -10 -4 -10 -3 0 -8 5 -11 10 -3 6
-1 10 4 10 6 0 11 -4 11 -10z m-126 -136 c11 -4 13 -12 7 -27 -5 -12 -6 -28
-4 -34 5 -14 -25 -17 -43 -5 -19 12 -6 72 16 72 4 0 15 -3 24 -6z m-237 -146
c-2 -13 -4 -3 -4 22 0 25 2 35 4 23 2 -13 2 -33 0 -45z m350 56 c-3 -3 -12 -4
-19 -1 -8 3 -5 6 6 6 11 1 17 -2 13 -5z m-77 -8 c0 -2 -8 -10 -17 -17 -16 -13
-17 -12 -4 4 13 16 21 21 21 13z m-230 -36 c0 -20 -5 -30 -15 -30 -8 0 -15 7
-15 15 0 8 5 15 10 15 6 0 10 5 10 11 0 5 -4 7 -10 4 -5 -3 -10 -1 -10 4 0 6
7 11 15 11 10 0 15 -10 15 -30z m91 3 l2 -28 4 28 c5 35 23 35 23 1 0 -22 2
-24 14 -15 8 7 26 11 40 9 36 -4 18 -29 -22 -30 -20 -1 -32 -6 -32 -15 0 -7
-9 -13 -20 -13 -17 0 -20 7 -21 43 -1 39 -2 40 -9 12 l-8 -30 -2 30 -3 30 -4
-27 c-2 -16 -9 -28 -15 -28 -6 0 -8 10 -4 25 4 14 2 25 -3 25 -5 0 -12 -12
-14 -27 -4 -26 -4 -26 -6 5 -1 31 0 32 39 32 37 0 40 -2 41 -27z m183 -18 c-4
-8 -12 -15 -20 -15 -8 0 -14 7 -14 15 0 8 9 15 20 15 13 0 18 -5 14 -15z"/>
<path d="M1860 1710 c-6 -11 -8 -20 -6 -20 3 0 10 9 16 20 6 11 8 20 6 20 -3
0 -10 -9 -16 -20z"/>
<path d="M1857 1675 c-57 -16 -61 -19 -54 -40 5 -11 21 -15 62 -15 48 0 55 -3
55 -19 0 -11 -4 -22 -9 -25 -5 -3 -8 2 -7 12 2 24 -98 31 -108 7 -4 -11 -2
-14 6 -9 7 5 9 2 6 -8 -4 -8 -1 -15 5 -15 7 0 41 -6 77 -12 36 -6 84 -11 108
-11 l42 0 0 -44 c0 -43 0 -44 46 -55 54 -14 60 -11 66 29 4 28 1 32 -24 37
-32 6 -38 23 -7 23 17 0 20 5 17 31 -3 32 -37 65 -44 44 -2 -6 -22 -9 -43 -7
-39 4 -39 5 -34 38 5 30 2 35 -21 44 -35 13 -79 11 -139 -5z"/>
<path d="M646 1632 c-7 -28 -10 -31 -23 -20 -14 11 -15 5 -8 -52 6 -62 44
-260 65 -345 30 -123 -1 -55 -75 166 -35 107 -65 182 -65 167 0 -53 149 -466
173 -476 13 -6 7 -58 -9 -78 -15 -18 -15 -18 -5 3 6 12 11 26 11 32 0 21 -15
11 -29 -19 -8 -20 -22 -33 -40 -36 -36 -8 -65 -30 -58 -47 3 -8 0 -20 -6 -26
-9 -9 -8 -11 6 -5 9 3 16 14 15 23 -2 13 5 16 37 15 21 -1 41 -7 43 -13 5 -16
42 -14 42 3 0 8 -5 16 -10 18 -6 2 3 19 19 38 27 33 30 34 48 18 36 -33 107
-58 164 -58 43 0 70 7 118 31 67 33 116 86 217 229 30 43 61 83 69 90 10 9 48
12 117 11 57 -1 99 1 96 5 -4 4 -48 6 -98 5 -53 -1 -90 2 -90 8 0 14 61 49
121 70 l53 18 23 -26 c15 -17 21 -20 17 -8 -3 9 -10 17 -15 17 -15 0 -10 28 7
34 43 17 72 -13 38 -40 -17 -13 -16 -13 9 -2 22 9 28 17 24 34 -3 20 -1 21 27
13 17 -5 32 -9 33 -9 2 0 3 -6 3 -12 0 -7 18 -24 40 -38 29 -17 40 -31 40 -48
0 -20 4 -24 25 -20 13 3 22 1 19 -3 -6 -10 61 -23 74 -15 6 3 12 2 14 -4 1 -5
18 -14 36 -19 28 -8 32 -7 32 9 0 11 9 24 19 30 27 14 29 13 27 -15 0 -14 -4
-25 -8 -25 -5 0 -8 -5 -8 -10 0 -7 8 -6 23 1 20 11 21 11 9 -4 -26 -31 -52
-143 -59 -249 -3 -60 -7 -108 -9 -108 -2 0 -38 22 -81 49 -43 27 -85 51 -93
53 -8 2 -21 10 -28 18 -10 12 -10 10 -1 -12 7 -16 16 -28 20 -28 4 0 10 -8 13
-17 4 -10 -16 7 -44 37 -51 55 -52 56 -51 120 0 36 0 94 0 129 l0 63 30 -4
c17 -3 31 -1 31 4 0 4 -13 8 -28 8 -24 0 -30 5 -38 38 -10 37 -10 37 -23 13
-7 -13 -9 -21 -4 -18 8 5 15 -62 16 -148 2 -96 -7 -245 -14 -245 -4 0 -10 -8
-12 -17 -3 -10 -5 28 -6 85 -1 70 3 102 10 102 8 0 10 14 6 40 -3 22 -1 40 4
40 5 0 9 4 9 10 0 5 -7 7 -15 4 -10 -4 -15 0 -15 11 0 9 5 13 11 10 7 -5 9 5
7 26 -2 19 -7 33 -13 32 -19 -3 -26 -90 -22 -295 3 -194 2 -208 -15 -214 -10
-3 -18 -10 -18 -15 0 -15 -57 -10 -64 6 -3 8 -10 15 -16 15 -6 0 -9 -4 -6 -9
4 -5 0 -12 -6 -14 -7 -3 -4 -6 7 -6 17 -1 18 -3 5 -12 -13 -9 -12 -10 2 -5 11
3 21 -2 28 -14 15 -27 13 -30 -20 -30 -23 0 -33 7 -46 33 -20 38 -54 83 -54
71 0 -5 14 -29 30 -54 34 -51 36 -60 16 -60 -8 0 -17 -6 -19 -12 -4 -10 -6
-10 -6 0 -1 7 -5 11 -11 7 -5 -3 -18 12 -29 34 -21 40 -41 61 -41 42 0 -6 -13
-11 -29 -11 -21 0 -32 6 -36 21 -4 11 -9 18 -12 15 -6 -5 16 -65 38 -108 8
-16 4 -18 -30 -18 -34 0 -41 4 -50 28 l-11 27 5 -32 c4 -32 4 -33 -34 -33
l-39 0 -16 63 c-16 67 -16 63 0 -85 l6 -58 -41 0 c-41 0 -56 15 -23 23 12 3 9
5 -7 6 -19 1 -22 4 -14 12 6 6 9 17 6 24 -3 9 6 15 24 18 27 4 27 4 -4 6 -38
1 -45 21 -8 21 14 0 25 4 25 8 0 5 -13 7 -30 4 -16 -2 -30 -7 -30 -11 0 -3
-20 -5 -45 -3 -28 3 -45 0 -45 -7 0 -6 -17 -10 -42 -10 -24 1 -33 4 -20 6 12
2 22 9 22 14 0 6 -26 7 -65 3 -61 -6 -65 -6 -59 12 5 18 4 18 -11 -1 -16 -19
-15 -20 37 -26 63 -7 54 -12 -24 -13 -51 -1 -55 1 -46 17 5 10 8 21 5 23 -11
11 -71 -123 -69 -153 2 -22 -2 -33 -10 -33 -15 0 -48 -35 -48 -51 0 -6 -22
-56 -48 -112 -27 -56 -54 -117 -61 -134 l-13 -33 -269 0 -269 0 0 -90 0 -90
1310 0 1310 0 0 319 0 319 -77 17 c-93 19 -107 24 -101 30 3 3 34 -1 69 -10
35 -8 74 -15 87 -15 l22 0 -1 228 c0 125 -3 222 -5 217 -2 -6 -29 -8 -68 -5
-78 6 -101 21 -28 18 50 -2 72 5 58 19 -3 4 -40 7 -81 7 -56 1 -74 -2 -70 -11
6 -17 -18 -16 -59 1 -34 14 -56 54 -56 103 0 13 -6 26 -14 29 -18 7 -116 -56
-116 -73 0 -7 -4 -13 -10 -13 -9 0 -14 14 -11 33 0 4 -6 7 -15 7 -13 0 -13 -4
4 -27 10 -16 19 -46 19 -68 1 -38 -1 -36 -22 30 -15 45 -33 78 -51 94 -17 14
-21 22 -11 18 12 -4 16 -3 11 4 -3 6 -18 8 -33 5 -24 -6 -25 -5 -7 8 21 17 36
12 79 -29 25 -24 30 -25 45 -12 9 8 32 22 50 31 27 14 32 22 30 49 l-1 32 -5
-35 c-5 -33 -5 -34 -12 -10 -8 24 -8 24 -9 3 -1 -19 -7 -23 -36 -23 -22 0 -37
-6 -44 -17 -5 -10 -13 -15 -17 -11 -4 4 -2 14 5 21 9 12 7 13 -13 10 -17 -4
-25 0 -29 16 -3 14 -10 19 -21 15 -12 -5 -16 0 -16 16 0 23 0 23 -25 -4 -23
-25 -26 -26 -49 -11 -13 9 -28 15 -32 14 -32 -5 -65 5 -90 27 -16 15 -23 23
-16 19 10 -5 13 -2 10 11 -2 15 -12 18 -50 17 -27 -1 -51 3 -54 9 -4 7 7 8 32
4 46 -7 59 0 66 34 4 25 4 25 -67 22 -71 -3 -72 -3 -94 30 -22 32 -25 33 -74
28 -48 -5 -52 -7 -61 -39 -7 -26 -7 -36 2 -39 17 -5 15 -22 -3 -22 -30 0 -143
-58 -182 -94 -35 -31 -47 -36 -92 -36 -28 0 -51 -3 -51 -8 0 -4 20 -6 45 -4
25 2 45 1 45 -3 0 -11 -108 -164 -158 -223 -106 -125 -240 -152 -358 -71 -37
25 -108 105 -77 86 15 -10 9 36 -27 183 -16 63 -31 135 -34 160 -6 40 -3 36
24 -35 17 -44 29 -88 26 -97 -2 -9 2 -19 9 -22 17 -6 35 -92 36 -174 0 -47 3
-61 9 -47 13 31 11 105 -5 165 -8 30 -15 56 -15 56 0 1 20 2 45 2 25 1 50 4
55 7 6 4 9 27 8 53 l-1 47 -4 -41 c-4 -45 -17 -54 -79 -54 -30 0 -31 2 -69
110 -23 69 -40 140 -44 188 -6 67 -8 73 -15 44z m1118 -181 c3 -5 -3 -11 -14
-14 -11 -3 -18 -1 -15 3 3 5 -1 11 -7 13 -7 3 -3 6 9 6 12 1 24 -3 27 -8z m46
-58 c0 -1 -7 -9 -16 -18 -12 -12 -19 -13 -30 -4 -22 18 -16 28 16 26 16 -1 30
-3 30 -4z m31 -40 c13 -15 12 -16 -8 -11 -17 5 -23 2 -24 -10 0 -13 -2 -13 -8
3 -15 36 15 50 40 18z m289 -187 c0 -11 -19 -15 -25 -6 -3 5 1 10 9 10 9 0 16
-2 16 -4z m-3 -95 c-10 -4 -27 17 -27 33 0 5 8 1 19 -10 10 -10 14 -21 8 -23z
m221 14 c-3 -3 -9 2 -12 12 -6 14 -5 15 5 6 7 -7 10 -15 7 -18z m182 -30 c0
-18 -4 -23 -15 -19 -8 4 -15 10 -15 16 0 5 5 6 10 3 6 -3 10 1 10 9 0 9 2 16
5 16 3 0 5 -11 5 -25z m-403 -7 c4 -7 11 -44 15 -83 4 -38 10 -90 13 -115 4
-41 -15 -110 -31 -110 -3 0 -2 5 1 10 3 6 -3 10 -15 10 -12 0 -18 5 -15 10 4
6 11 7 17 4 7 -5 9 -2 6 7 -6 15 16 42 26 32 3 -4 6 1 6 10 0 9 -5 16 -12 14
-6 -1 -13 7 -15 18 -2 11 -8 29 -13 40 -11 25 -28 153 -22 160 10 9 31 5 39
-7z m70 -30 c-3 -8 -6 -5 -6 6 -1 11 2 17 5 13 3 -3 4 -12 1 -19z m-397 -79
c22 -18 37 -36 34 -41 -3 -5 -1 -7 5 -6 5 2 17 -6 26 -17 9 -11 14 -13 10 -5
-4 8 2 5 12 -6 10 -12 32 -29 48 -37 17 -8 38 -24 48 -35 17 -18 17 -20 1 -26
-17 -6 -41 9 -128 82 -24 20 -63 52 -85 70 -23 18 -39 38 -36 43 10 15 24 10
65 -22z m724 0 c-10 -16 -24 -9 -24 12 0 18 2 19 15 9 8 -7 12 -16 9 -21z
m-835 -51 c0 -7 -4 -22 -9 -33 -7 -17 -9 -15 -9 13 -1 17 4 32 9 32 6 0 10 -6
9 -12z m396 2 c-3 -5 4 -23 16 -39 20 -27 20 -30 4 -55 -10 -14 -20 -26 -23
-26 -3 0 -3 3 1 6 3 3 -6 17 -21 30 -15 14 -20 23 -12 22 8 -2 20 -10 27 -18
6 -8 14 -12 18 -8 4 3 -7 16 -24 29 -40 29 -43 69 -5 69 14 0 22 -4 19 -10z
m143 -93 c2 -10 -3 -17 -12 -17 -9 0 -16 5 -16 11 0 5 5 7 10 4 6 -3 10 -2 10
4 0 5 -5 12 -10 14 -6 3 -5 4 2 3 7 -1 14 -10 16 -19z m-156 -24 c10 -9 18
-26 18 -39 0 -13 5 -26 10 -29 6 -3 10 0 10 8 0 7 7 14 15 14 8 0 15 -4 15 -9
0 -5 5 -6 12 -2 14 9 5 -183 -10 -198 -12 -12 -25 103 -18 152 l5 35 -19 -40
c-10 -22 -19 -33 -20 -25 -1 8 -7 -1 -14 -20 -7 -19 -11 -42 -8 -50 4 -12 2
-13 -9 -2 -15 14 -28 222 -13 222 4 0 16 -7 26 -17z m-62 -23 c0 -5 -5 -10
-11 -10 -5 0 -7 5 -4 10 3 6 8 10 11 10 2 0 4 -4 4 -10z m-387 -7 c-7 -2 -21
-2 -30 0 -10 3 -4 5 12 5 17 0 24 -2 18 -5z m-204 -26 c23 -35 41 -97 29 -97
-5 0 -8 -6 -5 -14 4 -9 -1 -17 -11 -19 -15 -4 31 -11 51 -8 4 0 7 -4 7 -9 0
-5 -7 -10 -16 -10 -13 0 -14 -3 -4 -14 6 -8 18 -12 26 -9 8 3 14 0 14 -6 0
-12 -48 -15 -74 -5 -9 3 -16 11 -16 16 0 6 7 8 15 4 8 -3 15 -1 15 4 0 6 -9
10 -20 10 -11 0 -20 4 -20 9 0 5 -3 17 -6 25 -5 12 -2 15 10 10 9 -3 16 -1 16
5 0 6 -9 11 -20 11 -14 0 -27 15 -45 53 -14 30 -25 57 -25 60 0 4 15 6 34 5
21 -1 38 -8 45 -21z m169 -34 c-10 -2 -26 -2 -35 0 -10 3 -2 5 17 5 19 0 27
-2 18 -5z m-558 -33 c-11 -7 -6 -10 21 -10 33 0 36 -2 31 -25 -4 -22 -9 -25
-48 -25 -24 0 -44 5 -44 10 0 6 4 10 9 10 4 0 6 11 3 25 -4 21 -1 25 19 25 19
0 21 -2 9 -10z m47 4 c-3 -3 -12 -4 -19 -1 -8 3 -5 6 6 6 11 1 17 -2 13 -5z
m-130 -10 c-3 -3 -12 -4 -19 -1 -8 3 -5 6 6 6 11 1 17 -2 13 -5z m43 -4 c0 -5
-7 -7 -15 -4 -8 4 -15 8 -15 10 0 2 7 4 15 4 8 0 15 -4 15 -10z m340 0 c0 -5
-4 -10 -10 -10 -5 0 -10 5 -10 10 0 6 5 10 10 10 6 0 10 -4 10 -10z m200 -2
c0 -4 -9 -8 -20 -8 -11 0 -23 0 -27 -1 -4 0 -9 4 -11 10 -2 7 8 11 27 9 17 -1
31 -6 31 -10z m-705 -8 c3 -5 -1 -10 -9 -10 -9 0 -16 5 -16 10 0 6 4 10 9 10
6 0 13 -4 16 -10z m445 0 c0 -5 -13 -10 -30 -10 -16 0 -30 5 -30 10 0 6 14 10
30 10 17 0 30 -4 30 -10z m-291 -14 c-2 -2 -21 -6 -42 -10 -27 -5 -37 -4 -32
3 3 6 22 11 42 11 20 0 34 -2 32 -4z m398 -11 c2 -6 -15 -9 -42 -7 -25 2 -45
8 -45 14 0 12 82 6 87 -7z m183 4 c0 -5 -16 -9 -35 -9 -19 0 -35 4 -35 9 0 5
16 9 35 9 19 0 35 -4 35 -9z m-690 -9 c11 -7 3 -10 -30 -11 l-45 -2 45 -6 45
-7 -50 -11 c-27 -6 -51 -11 -51 -10 -1 1 0 14 3 30 4 23 10 27 37 27 17 0 38
-5 46 -10z m410 -1 c0 -4 -6 -10 -12 -12 -7 -3 -4 -6 7 -6 19 -1 19 -1 -1 -15
-11 -8 -31 -12 -47 -9 -27 5 -38 22 -14 24 10 0 10 2 0 6 -26 10 -12 20 27 20
22 0 40 -3 40 -8z m-339 -18 c-8 -5 -20 -7 -28 -4 -21 8 -15 13 15 13 20 0 23
-3 13 -9z m414 -1 c16 -7 13 -9 -17 -9 -21 -1 -38 4 -38 9 0 12 27 12 55 0z
m212 4 c-3 -3 -12 -4 -19 -1 -8 3 -5 6 6 6 11 1 17 -2 13 -5z m293 -5 c0 -5 5
-7 10 -4 6 3 16 3 22 -1 7 -5 27 -7 45 -5 30 2 33 0 34 -26 l1 -28 8 30 8 30
2 -30 2 -30 8 30 c7 27 8 25 9 -17 1 -37 -3 -48 -14 -48 -8 0 -15 7 -15 15 0
8 -7 15 -16 15 -12 0 -15 7 -12 25 3 14 1 25 -3 25 -5 0 -10 -15 -10 -32 l-2
-33 -7 35 -7 35 -2 -35 c-1 -27 -4 -31 -11 -20 -5 8 -10 10 -10 5 0 -14 -97
-17 -106 -4 -3 6 2 20 13 31 10 12 12 18 6 14 -7 -4 -13 -3 -13 2 0 16 13 22
27 11 10 -9 13 -8 13 5 0 9 5 16 10 16 6 0 10 -5 10 -11z m670 -45 c0 -16 -4
-22 -14 -18 -7 3 -13 16 -13 29 0 16 4 22 13 18 8 -3 14 -16 14 -29z m-1355
16 c-3 -5 -20 -10 -36 -10 -18 0 -28 4 -24 10 3 6 20 10 36 10 18 0 28 -4 24
-10z m211 -2 c4 -7 -6 -9 -30 -6 -32 4 -35 2 -30 -15 5 -17 3 -19 -17 -14 -13
4 -35 7 -49 7 -24 1 -24 2 -4 10 12 5 25 13 28 18 8 14 94 13 102 0z m-558
-20 c-5 -15 -68 -24 -68 -10 0 15 13 22 43 22 18 0 27 -4 25 -12z m536 -14 c9
-8 16 -11 16 -5 0 6 7 11 15 11 8 0 15 -4 15 -10 0 -10 -6 -11 -59 -14 -24 -1
-27 1 -17 17 13 21 11 21 30 1z m758 -46 c-15 -15 -41 -2 -51 24 -7 20 -5 24
18 28 21 5 28 1 35 -18 5 -15 4 -28 -2 -34z m-1203 31 c-24 -15 -45 -11 -24 5
11 8 24 12 28 9 5 -3 3 -9 -4 -14z m261 17 c0 -11 -19 -15 -25 -6 -3 5 1 10 9
10 9 0 16 -2 16 -4z m113 -12 c15 -16 -7 -34 -36 -29 -38 7 -49 14 -42 26 7
10 68 13 78 3z m-527 -19 c-1 -8 -8 -21 -16 -28 -7 -6 -11 -7 -8 -2 3 6 8 18
11 28 8 21 16 23 13 2z m62 -2 c2 -7 -1 -13 -6 -13 -17 0 -42 12 -42 20 0 12
43 6 48 -7z m220 5 c-5 -15 -48 -18 -48 -4 0 7 12 13 26 14 16 1 24 -3 22 -10z
m472 2 c0 -12 -40 -13 -58 -1 -8 5 0 8 23 9 19 1 35 -3 35 -8z m-590 -25 c0
-10 -11 -14 -37 -13 -21 1 -32 3 -25 6 7 2 10 8 6 13 -3 5 9 9 25 9 21 0 31
-5 31 -15z m110 -20 c0 -10 -10 -15 -31 -15 -27 0 -30 2 -19 15 7 8 21 15 31
15 11 0 19 -7 19 -15z m1051 -8 c-1 -12 -15 -9 -19 4 -3 6 1 10 8 8 6 -3 11
-8 11 -12z m-851 -1 c0 -3 -4 -8 -10 -11 -5 -3 -10 -1 -10 4 0 6 5 11 10 11 6
0 10 -2 10 -4z m60 0 c0 -2 -7 -6 -15 -10 -8 -3 -15 -1 -15 4 0 6 7 10 15 10
8 0 15 -2 15 -4z m-396 -20 c-8 -20 -35 -29 -48 -15 -8 9 -8 10 2 5 6 -4 12
-2 12 4 0 6 5 8 10 5 6 -3 10 -1 10 4 0 6 4 11 10 11 5 0 7 -6 4 -14z m-145
-10 c15 -8 38 -12 49 -9 26 6 27 -2 7 -51 -15 -36 -16 -36 -76 -36 -52 0 -60
2 -55 16 3 9 6 20 6 25 0 5 26 10 58 11 l57 1 -45 6 c-43 6 -48 11 -42 44 3
10 9 9 41 -7z m184 -3 c-7 -2 -19 -2 -25 0 -7 3 -2 5 12 5 14 0 19 -2 13 -5z
m88 -5 c52 -15 49 -28 -6 -28 -25 0 -45 2 -45 4 0 2 -3 11 -6 20 -7 19 5 20
57 4z m494 -18 c-3 -5 -15 -10 -26 -10 -10 0 -19 5 -19 10 0 6 12 10 26 10 14
0 23 -4 19 -10z m45 0 c0 -5 -7 -10 -15 -10 -8 0 -15 5 -15 10 0 6 7 10 15 10
8 0 15 -4 15 -10z m-700 -19 c0 -5 8 -12 18 -14 9 -3 0 -5 -21 -6 -32 -1 -36
1 -25 14 15 16 28 19 28 6z m208 -23 c4 -21 -37 -36 -49 -17 -7 12 -9 11 -9
-1 0 -13 -1 -13 -10 0 -6 10 -10 11 -10 3 0 -7 -5 -13 -11 -13 -5 0 -7 6 -3
13 5 8 2 8 -9 -2 -12 -9 -17 -10 -17 -2 0 7 -4 10 -9 7 -5 -4 -8 -22 -7 -41 2
-19 -1 -35 -6 -35 -5 0 -7 -13 -3 -30 7 -32 -5 -40 -24 -17 -8 10 -7 19 4 33
8 10 15 35 15 54 0 28 6 39 28 53 36 22 115 20 120 -5z m489 4 c14 11 15 11
11 -2 -5 -16 -58 -23 -58 -8 0 21 -35 1 -40 -22 -5 -22 -12 -25 -54 -28 -29
-2 -46 1 -42 6 3 6 -1 12 -9 16 -34 13 -12 26 45 26 38 0 60 4 60 11 0 7 11 9
30 6 20 -5 30 -2 31 6 1 6 3 4 6 -6 4 -15 7 -16 20 -5z m-312 -21 c-6 -5 -25
10 -25 20 0 5 6 4 14 -3 8 -7 12 -15 11 -17z m-345 5 c0 -3 -4 -8 -10 -11 -5
-3 -10 -1 -10 4 0 6 5 11 10 11 6 0 10 -2 10 -4z m417 -2 c-3 -3 -12 -4 -19
-1 -8 3 -5 6 6 6 11 1 17 -2 13 -5z m380 -9 c18 -19 17 -20 -22 -29 -22 -5
-26 -4 -15 4 13 8 13 10 -2 10 -10 0 -18 -6 -19 -12 0 -11 -16 17 -18 32 -2
14 62 9 76 -5z m-510 -1 c-3 -3 -12 -4 -19 -1 -8 3 -5 6 6 6 11 1 17 -2 13 -5z
m-402 -44 c-6 -27 -4 -30 19 -30 13 0 28 -4 31 -10 3 -5 15 -10 26 -10 10 0
19 -3 19 -8 0 -11 -84 -1 -92 11 -4 6 -10 -1 -13 -16 -4 -15 -11 -27 -16 -27
-5 0 -7 11 -3 25 4 15 2 25 -4 25 -6 0 -12 -10 -14 -22 -3 -20 -10 -23 -55
-26 -51 -3 -53 -2 -53 22 0 15 5 26 10 26 6 0 10 7 10 16 0 41 19 54 81 54
l61 0 -7 -30z m238 23 c-7 -2 -13 -13 -13 -24 0 -28 -27 -23 -32 6 -5 22 -2
25 26 24 17 0 25 -3 19 -6z m307 -14 c0 -14 -36 -11 -49 4 -8 11 -5 13 19 9
17 -2 30 -8 30 -13z m284 5 c11 -27 7 -34 -20 -34 -19 0 -25 4 -21 15 7 17 -8
29 -23 20 -8 -5 -7 -11 1 -21 9 -11 6 -14 -16 -14 -23 0 -26 2 -15 15 12 14 7
19 -13 16 -5 -1 -6 3 -2 9 11 17 102 12 109 -6z m604 -12 c2 -15 -2 -22 -12
-22 -11 0 -16 9 -16 26 0 31 23 28 28 -4z m-968 8 c0 -6 10 -15 23 -20 20 -8
19 -9 -10 -9 -27 -1 -33 3 -33 19 0 11 5 20 10 20 6 0 10 -5 10 -10z m-50 -20
c8 -5 11 -12 7 -17 -5 -4 -11 -3 -15 3 -4 6 -14 14 -22 17 -13 5 -13 5 0 6 8
0 22 -3 30 -9z m299 -16 c16 -35 15 -37 -19 -30 -22 4 -30 2 -30 -9 0 -7 10
-16 23 -18 12 -2 -2 -5 -32 -6 -47 -1 -52 1 -41 15 11 13 10 16 -8 21 -25 6
-29 21 -7 29 8 4 13 10 10 14 -3 4 17 8 44 8 42 1 50 -2 60 -24z m301 16 c0
-5 -5 -10 -11 -10 -5 0 -7 5 -4 10 3 6 8 10 11 10 2 0 4 -4 4 -10z m-636 -14
c25 -10 57 -13 116 -9 81 6 82 6 75 -15 -4 -13 -2 -22 4 -22 6 0 11 -3 11 -7
0 -5 -38 -8 -85 -8 -79 0 -103 6 -72 18 7 4 6 6 -5 6 -9 1 -18 -4 -20 -11 -2
-6 -28 -13 -57 -14 -38 -3 -51 0 -48 9 2 7 10 11 16 10 6 -2 11 2 11 7 0 6 7
10 16 10 8 0 12 -4 9 -10 -3 -5 3 -10 15 -10 12 0 19 4 15 9 -3 5 3 12 12 14
10 3 3 5 -15 6 -19 1 -31 5 -27 11 3 6 -3 10 -14 10 -13 0 -21 -7 -21 -17 0
-9 -3 -14 -6 -10 -11 10 4 37 21 37 9 0 31 -6 49 -14z m931 -4 c-3 -3 -11 0
-18 7 -9 10 -8 11 6 5 10 -3 15 -9 12 -12z m-1052 -11 c10 0 16 -5 12 -10 -3
-5 -1 -12 5 -16 21 -13 9 -25 -25 -25 -19 0 -35 4 -35 8 0 5 -11 15 -25 22
-43 23 -31 27 68 21z m682 -1 c4 -6 -7 -10 -24 -10 -17 0 -31 5 -31 10 0 6 11
10 24 10 14 0 28 -4 31 -10z m-69 -15 c11 -8 43 -15 79 -16 48 0 54 -2 33 -9
-28 -8 -214 -3 -230 6 -17 10 26 33 63 34 19 0 44 -7 55 -15z m182 9 c21 -6
21 -7 5 -20 -18 -14 -42 -20 -30 -7 4 3 2 12 -4 20 -13 14 -6 16 29 7z m175
-1 c-13 -2 -33 -2 -45 0 -13 2 -3 4 22 4 25 0 35 -2 23 -4z m-70 -30 c-7 -2
-19 -2 -25 0 -7 3 -2 5 12 5 14 0 19 -2 13 -5z m44 1 c-3 -3 -12 -4 -19 -1 -8
3 -5 6 6 6 11 1 17 -2 13 -5z m108 -4 c-3 -5 -12 -7 -20 -3 -21 7 -19 13 6 13
11 0 18 -4 14 -10z m45 0 c0 -5 -4 -10 -10 -10 -5 0 -10 5 -10 10 0 6 5 10 10
10 6 0 10 -4 10 -10z m150 0 c0 -5 -2 -10 -4 -10 -3 0 -8 5 -11 10 -3 6 -1 10
4 10 6 0 11 -4 11 -10z m-2140 -57 c0 -5 27 -7 60 -6 58 1 60 1 61 -25 1 -26
1 -26 8 3 9 43 24 15 15 -30 -6 -35 -34 -50 -34 -19 0 8 -4 12 -10 9 -6 -4
-11 6 -11 22 l-1 28 -7 -26 c-6 -24 -11 -26 -67 -28 -65 -2 -85 9 -64 34 10
11 10 15 1 15 -7 0 -9 5 -6 11 4 6 13 8 21 5 8 -3 14 -1 14 4 0 6 5 10 10 10
6 0 10 -3 10 -7z m2170 -61 c0 -5 -18 -9 -40 -9 -22 0 -40 4 -40 9 0 4 18 8
40 8 22 0 40 -4 40 -8z m84 -4 c-3 -4 -21 -8 -40 -8 -19 0 -33 4 -30 8 3 5 21
9 40 9 19 0 33 -4 30 -9z m106 2 c0 -5 -11 -10 -25 -10 -14 0 -25 5 -25 10 0
6 11 10 25 10 14 0 25 -4 25 -10z"/>
<path d="M1415 670 c3 -5 8 -10 11 -10 2 0 4 5 4 10 0 6 -5 10 -11 10 -5 0 -7
-4 -4 -10z"/>
<path d="M1865 549 c-4 -6 -5 -12 -2 -15 2 -3 7 2 10 11 7 17 1 20 -8 4z"/>
<path d="M1285 540 c-3 -6 1 -7 9 -4 18 7 21 14 7 14 -6 0 -13 -4 -16 -10z"/>
<path d="M1658 313 c7 -3 16 -2 19 1 4 3 -2 6 -13 5 -11 0 -14 -3 -6 -6z"/>
<path d="M690 240 c0 -5 5 -10 11 -10 5 0 7 5 4 10 -3 6 -8 10 -11 10 -2 0 -4
-4 -4 -10z"/>
<path d="M160 99 c0 -5 5 -7 10 -4 6 3 10 8 10 11 0 2 -4 4 -10 4 -5 0 -10 -5
-10 -11z"/>
<path d="M221 94 c0 -11 3 -14 6 -6 3 7 2 16 -1 19 -3 4 -6 -2 -5 -13z"/>
<path d="M1282 1628 c5 -15 28 -23 28 -10 0 5 -7 13 -16 16 -10 4 -14 1 -12
-6z"/>
<path d="M1325 1590 c3 -5 8 -10 11 -10 2 0 4 5 4 10 0 6 -5 10 -11 10 -5 0
-7 -4 -4 -10z"/>
<path d="M2178 1593 c7 -3 16 -2 19 1 4 3 -2 6 -13 5 -11 0 -14 -3 -6 -6z"/>
<path d="M2317 1575 c3 -8 9 -12 14 -9 12 7 11 11 -5 17 -10 4 -13 1 -9 -8z"/>
<path d="M2278 1573 c7 -3 16 -2 19 1 4 3 -2 6 -13 5 -11 0 -14 -3 -6 -6z"/>
<path d="M2210 1552 c0 -15 8 -19 37 -20 77 -3 215 -32 312 -67 55 -19 61 -19
61 3 0 19 -55 35 -280 82 -118 25 -130 25 -130 2z"/>
<path d="M2358 1563 c7 -3 16 -2 19 1 4 3 -2 6 -13 5 -11 0 -14 -3 -6 -6z"/>
<path d="M1835 1521 c-7 -7 6 -21 20 -21 7 0 15 6 18 14 4 10 -1 14 -14 13
-11 -1 -22 -3 -24 -6z"/>
<path d="M1267 1473 c-19 -18 1 -92 21 -79 12 7 4 46 -10 46 -5 0 -6 9 -3 20
6 20 4 25 -8 13z"/>
<path d="M2307 1436 c-3 -7 -24 -18 -46 -25 -28 -8 -39 -16 -34 -24 5 -9 3 -9
-9 0 -12 11 -18 9 -34 -8 -10 -11 -14 -20 -9 -19 6 2 15 1 20 0 6 -1 25 -1 43
0 29 1 32 -1 33 -27 l1 -28 7 30 c9 44 35 39 39 -7 4 -43 28 -54 53 -24 19 23
64 14 54 -11 -4 -12 -2 -13 8 -5 8 7 18 7 27 2 20 -13 30 -12 30 0 0 6 -6 10
-14 10 -8 0 -17 4 -20 9 -4 5 10 5 32 0 20 -5 41 -9 45 -9 4 0 17 -15 28 -34
11 -19 29 -36 39 -39 19 -5 20 0 20 89 l0 94 -78 0 c-43 0 -105 7 -137 15 -33
8 -68 17 -77 19 -9 2 -19 -2 -21 -8z"/>
<path d="M2111 1404 c0 -11 3 -14 6 -6 3 7 2 16 -1 19 -3 4 -6 -2 -5 -13z"/>
<path d="M1947 1369 c-10 -6 -25 -8 -33 -5 -8 3 -13 2 -10 -3 3 -5 24 -11 45
-13 35 -3 38 -1 30 14 -11 21 -9 20 -32 7z"/>
<path d="M2171 1336 c-9 -10 -8 -15 2 -19 8 -3 13 3 14 14 2 23 -1 24 -16 5z"/>
<path d="M1570 1310 c0 -5 5 -10 10 -10 6 0 10 5 10 10 0 6 -4 10 -10 10 -5 0
-10 -4 -10 -10z"/>
<path d="M1625 1310 c3 -5 10 -10 16 -10 5 0 9 5 9 10 0 6 -7 10 -16 10 -8 0
-12 -4 -9 -10z"/>
<path d="M1033 1303 c-84 -2 -153 -7 -153 -11 0 -6 154 -7 313 -2 9 0 17 5 17
10 0 6 -6 9 -12 8 -7 -1 -82 -4 -165 -5z"/>
<path d="M2100 1256 c0 -2 8 -10 18 -17 15 -13 16 -12 3 4 -13 16 -21 21 -21
13z"/>
<path d="M1950 1026 c0 -7 8 -20 17 -27 15 -12 16 -12 10 4 -4 10 -7 23 -7 28
0 5 -4 9 -10 9 -5 0 -10 -6 -10 -14z"/>
<path d="M519 967 c-3 -35 0 -56 6 -54 14 5 18 58 7 87 -8 21 -10 16 -13 -33z"/>
<path d="M562 970 c-6 -10 -8 -21 -3 -24 13 -8 31 18 23 31 -6 9 -11 6 -20 -7z"/>
<path d="M651 877 c-7 -10 -9 -23 -5 -29 4 -6 3 -8 -3 -5 -6 4 -18 -2 -28 -13
-17 -19 -17 -20 0 -20 14 0 13 -3 -6 -20 l-24 -19 49 -1 c27 0 46 -3 43 -7 -4
-3 -24 -6 -45 -6 -32 0 -38 -4 -43 -26 -4 -14 -9 -33 -11 -41 -3 -8 -3 -12 -1
-8 3 4 16 3 30 -3 30 -11 37 -8 53 31 7 16 16 30 21 30 5 0 9 6 9 13 0 8 9 22
19 31 19 17 35 56 22 54 -19 -2 -31 3 -26 12 4 6 11 8 16 4 5 -3 9 -2 8 3 -4
23 3 31 24 26 12 -3 19 -3 15 2 -4 4 -29 8 -57 9 -38 1 -52 -3 -60 -17z m36
-22 c0 -8 -4 -15 -9 -15 -10 0 -11 14 -1 23 9 10 10 9 10 -8z m13 -65 c0 -5
-5 -10 -11 -10 -5 0 -7 5 -4 10 3 6 8 10 11 10 2 0 4 -4 4 -10z m-65 -90 c3
-6 -4 -9 -19 -8 -13 1 -22 6 -20 10 7 11 32 10 39 -2z"/>
<path d="M192 860 c0 -19 2 -27 5 -17 2 9 2 25 0 35 -3 9 -5 1 -5 -18z"/>
<path d="M930 790 c0 -7 -6 -21 -14 -29 -8 -10 -11 -24 -6 -36 6 -17 10 -12
19 24 7 23 10 46 7 49 -3 3 -6 -1 -6 -8z"/>
<path d="M878 763 c7 -3 16 -2 19 1 4 3 -2 6 -13 5 -11 0 -14 -3 -6 -6z"/>
<path d="M1003 763 c-15 -6 -17 -43 -3 -43 6 0 10 3 11 8 0 4 2 15 4 25 2 9 3
17 2 16 -1 0 -8 -3 -14 -6z"/>
<path d="M1081 738 c-1 -31 2 -38 18 -38 27 0 35 17 12 23 -11 2 -21 15 -24
28 -3 16 -5 12 -6 -13z"/>
<path d="M1241 753 c-1 -12 4 -25 9 -28 12 -7 12 2 0 30 -8 19 -9 19 -9 -2z"/>
<path d="M1198 743 c7 -3 16 -2 19 1 4 3 -2 6 -13 5 -11 0 -14 -3 -6 -6z"/>
<path d="M595 643 c3 -8 5 -18 5 -21 0 -8 20 20 20 29 0 3 -7 6 -15 6 -10 0
-14 -6 -10 -14z"/>
<path d="M548 613 c7 -3 16 -2 19 1 4 3 -2 6 -13 5 -11 0 -14 -3 -6 -6z"/>
<path d="M528 583 c12 -2 30 -2 40 0 9 3 -1 5 -23 4 -22 0 -30 -2 -17 -4z"/>
<path d="M0 549 c0 -5 5 -7 10 -4 5 3 10 8 10 11 0 2 -4 4 -10 4 -5 0 -10 -5
-10 -11z"/>
<path d="M325 449 c-3 -4 33 -9 80 -11 54 -2 84 1 82 7 -4 12 -155 16 -162 4z"/>
<path d="M145 410 c4 -6 11 -8 16 -5 5 3 6 -1 3 -9 -4 -11 0 -16 14 -16 11 0
22 8 25 20 4 17 0 20 -30 20 -20 0 -32 -4 -28 -10z"/>
<path d="M240 390 c0 -5 16 -10 36 -10 21 0 33 4 29 10 -3 6 -19 10 -36 10
-16 0 -29 -4 -29 -10z"/>
<path d="M343 383 c15 -2 39 -2 55 0 15 2 2 4 -28 4 -30 0 -43 -2 -27 -4z"/>
<path d="M373 323 c9 -2 23 -2 30 0 6 3 -1 5 -18 5 -16 0 -22 -2 -12 -5z"/>
<path d="M40 280 c-18 -6 -20 -8 -7 -9 12 -1 16 -6 11 -13 -6 -10 -4 -10 7 0
16 14 49 16 49 2 0 -5 5 -10 10 -10 7 0 7 6 0 20 -11 21 -28 23 -70 10z"/>
</g>
</svg>
