<?xml version="1.0" standalone="no"?>
<!DOCTYPE svg PUBLIC "-//W3C//DTD SVG 20010904//EN"
 "http://www.w3.org/TR/2001/REC-SVG-20010904/DTD/svg10.dtd">
<svg version="1.0" xmlns="http://www.w3.org/2000/svg"
 width="339.000000pt" height="153.000000pt" viewBox="0 0 339.000000 153.000000"
 preserveAspectRatio="xMidYMid meet">

<g transform="translate(0.000000,153.000000) scale(0.100000,-0.100000)"
fill="#000000" stroke="none">
<path d="M2550 1299 c-126 -18 -249 -86 -341 -187 -206 -228 -198 -583 20
-800 227 -227 597 -232 820 -11 236 235 239 602 6 834 -137 136 -312 193 -505
164z m211 -19 c91 -17 210 -82 283 -156 176 -175 214 -427 100 -645 -121 -230
-387 -345 -644 -280 -371 94 -540 524 -329 840 128 191 355 284 590 241z"/>
<path d="M2516 1219 c-52 -12 -152 -67 -193 -105 -24 -23 -33 -40 -33 -64 0
-25 -10 -42 -49 -79 -35 -33 -52 -59 -56 -84 -14 -74 14 -84 111 -41 161 71
536 71 698 -1 70 -31 102 -32 111 -5 12 39 -6 82 -56 129 -31 29 -49 55 -49
70 0 64 -101 144 -224 177 -57 15 -200 17 -260 3z m267 -49 c72 -22 183 -91
191 -118 2 -9 7 -32 11 -50 4 -20 19 -42 41 -59 53 -40 84 -113 49 -113 -9 0
-38 11 -65 25 -27 13 -88 31 -135 40 -48 8 -91 18 -97 21 -6 4 6 16 26 26 58
30 36 32 -29 3 -46 -20 -74 -25 -136 -25 -107 0 -292 -33 -363 -64 -73 -32
-76 -32 -76 1 0 19 14 40 49 72 38 35 52 57 60 91 7 31 20 53 43 72 40 34 123
75 175 87 70 16 187 12 256 -9z"/>
<path d="M2612 1143 c-17 -3 -22 -10 -20 -26 2 -18 12 -23 55 -28 29 -4 60 -9
68 -13 10 -3 17 3 21 20 8 30 -7 44 -48 44 -14 0 -32 2 -40 4 -7 2 -23 1 -36
-1z"/>
<path d="M2491 1109 c-52 -23 -45 -44 11 -34 46 9 62 20 55 39 -8 20 -12 20
-66 -5z"/>
<path d="M2762 1086 c-10 -23 -7 -28 31 -56 31 -23 49 -29 67 -25 55 14 51 32
-18 76 -56 35 -66 36 -80 5z"/>
<path d="M2378 1028 c-38 -41 -18 -51 23 -12 16 15 29 31 29 36 0 17 -23 7
-52 -24z"/>
<path d="M2898 974 c-16 -8 -28 -16 -28 -18 0 -6 93 -36 97 -32 6 6 -26 66
-35 66 -4 -1 -19 -8 -34 -16z"/>
<path d="M2317 939 c-4 -16 -3 -18 9 -8 16 13 19 29 5 29 -5 0 -11 -9 -14 -21z"/>
<path d="M2570 699 c0 -98 0 -100 23 -97 18 2 23 11 27 43 6 44 4 45 57 -23
12 -16 27 -23 42 -20 l23 3 -31 42 c-29 40 -29 41 -10 59 10 9 19 27 19 39 0
37 -30 55 -93 55 l-57 0 0 -101z m96 56 c7 -18 -12 -45 -32 -45 -9 0 -14 11
-14 30 0 23 4 30 20 30 11 0 23 -7 26 -15z"/>
<path d="M2174 627 c-9 -25 24 -111 68 -178 63 -93 188 -184 246 -177 22 2 28
9 30 36 2 17 4 32 6 32 1 0 19 -9 41 -20 50 -25 110 -25 160 0 49 25 48 25 42
-3 -14 -53 26 -64 102 -26 78 39 159 122 203 206 65 124 59 149 -34 137 -75
-10 -98 -24 -148 -95 -71 -99 -118 -146 -173 -174 -63 -31 -79 -31 -142 -1
-54 25 -99 69 -163 157 -47 65 -96 109 -121 109 -10 0 -39 3 -64 6 -37 5 -48
3 -53 -9z m90 -12 c50 -10 95 -62 235 -280 21 -33 8 -59 -27 -50 -45 11 -145
82 -186 132 -40 50 -96 156 -96 184 0 20 11 31 26 25 7 -3 29 -8 48 -11z m829
-19 c-6 -87 -135 -248 -237 -295 -84 -39 -100 -8 -38 77 20 29 53 77 72 108
48 77 92 117 142 130 55 15 63 13 61 -20z"/>
<path d="M2826 551 c-60 -61 -137 -104 -185 -104 -46 0 -102 29 -163 83 -27
23 -48 37 -48 32 0 -19 93 -94 147 -119 50 -23 59 -24 97 -13 55 16 127 63
170 111 30 33 45 59 33 59 -1 0 -24 -22 -51 -49z"/>
<path d="M1603 883 c-19 -7 -16 -40 4 -47 9 -4 23 0 31 8 13 12 13 18 2 30
-13 17 -17 18 -37 9z"/>
<path d="M170 754 l0 -115 28 3 c24 3 28 8 32 48 l5 45 27 -29 c15 -15 30 -37
33 -47 4 -13 16 -19 36 -19 16 0 29 3 29 6 0 3 -14 26 -31 50 l-31 46 21 22
c26 28 27 60 1 86 -16 16 -33 20 -85 20 l-65 0 0 -116z m108 64 c16 -16 -3
-48 -28 -48 -16 0 -20 7 -20 30 0 22 5 30 18 30 10 0 23 -5 30 -12z"/>
<path d="M390 755 l0 -115 24 0 c23 0 25 4 28 53 l3 52 34 -52 c28 -43 40 -53
63 -53 15 0 28 3 28 8 0 4 -16 29 -35 56 -19 27 -35 53 -35 56 0 4 16 28 35
53 19 25 35 48 35 51 0 3 -13 6 -29 6 -24 0 -35 -9 -62 -52 l-34 -53 -3 53
c-3 48 -5 52 -28 52 l-24 0 0 -115z"/>
<path d="M700 755 l0 -115 70 0 c63 0 70 2 70 19 0 16 -8 20 -42 23 -35 2 -43
7 -43 23 0 15 8 21 35 25 46 7 56 40 12 40 -33 0 -57 22 -48 45 3 10 19 15 46
15 34 0 41 3 38 18 -3 14 -16 18 -71 20 l-67 3 0 -116z"/>
<path d="M956 803 c-4 -4 -24 -7 -44 -8 l-37 0 0 -75 c0 -69 2 -75 21 -78 19
-3 22 3 26 53 5 57 19 78 45 68 9 -4 13 -24 13 -65 0 -59 0 -59 28 -56 23 3
28 8 30 37 5 48 -6 97 -24 116 -16 16 -46 20 -58 8z"/>
<path d="M1110 797 c-13 -7 -30 -29 -38 -49 -12 -30 -12 -41 0 -64 18 -39 61
-59 102 -47 39 11 51 47 13 37 -32 -8 -67 3 -67 21 0 10 16 15 53 17 49 3 52
5 49 28 -2 28 -45 70 -70 70 -9 0 -28 -6 -42 -13z m60 -42 c0 -9 -9 -15 -25
-15 -24 0 -32 10 -18 23 12 13 43 7 43 -8z"/>
<path d="M1330 800 c-7 -4 -28 -6 -47 -3 l-33 6 0 -82 c0 -78 1 -81 24 -81 20
0 24 6 29 50 7 61 12 70 38 70 12 0 19 7 19 19 0 24 -12 32 -30 21z"/>
<path d="M1406 787 c-38 -38 -37 -107 1 -137 26 -20 37 -21 76 -5 22 9 22 -8
0 -30 -12 -13 -27 -16 -55 -12 -36 5 -39 3 -36 -16 3 -19 11 -22 51 -25 41 -3
51 1 77 27 29 28 30 33 30 121 l0 91 -32 -1 c-18 -1 -45 2 -60 6 -21 5 -33 0
-52 -19z m92 -70 c-3 -28 -7 -32 -33 -32 -26 0 -30 4 -33 30 -5 37 21 59 50
44 14 -8 18 -19 16 -42z"/>
<path d="M1725 798 c-32 -18 -44 -40 -45 -76 0 -44 15 -71 48 -83 39 -15 92
-3 92 21 0 16 -5 19 -30 14 -29 -6 -60 8 -60 27 0 5 25 9 56 9 l57 0 -7 32
c-4 18 -12 38 -19 45 -18 19 -69 25 -92 11z m63 -45 c2 -9 -7 -13 -27 -13 -30
0 -39 9 -24 24 11 10 46 3 51 -11z"/>
<path d="M1874 785 c-30 -30 -21 -56 26 -80 42 -21 39 -39 -5 -32 -41 7 -57
-10 -29 -30 21 -16 77 -12 100 8 26 22 17 58 -21 80 -43 26 -45 39 -5 39 32 0
42 23 14 34 -30 12 -55 6 -80 -19z"/>
<path d="M1590 720 c0 -79 0 -80 25 -80 25 0 25 1 25 80 0 79 0 80 -25 80 -25
0 -25 -1 -25 -80z"/>
</g>
</svg>
